# xmcd
#
# Track frame offsets: 
#        150
#        95552
#        120085
#        164386
#
# Disc length: 3213 seconds
#
# Revision: 3
# Processed by: cddbd v1.5.2PL0 Copyright (c) Steve Scherf et al.
# Submitted via: ExactAudioCopy v1.0b3
#
DISCID=250c8b04
DTITLE=Ross Daly and Mitsos Stavrakakis  - Echo Of Time CD2
DYEAR=2003
DGENRE=Folk
TTITLE0=LAVYRINTHOS
TTITLE1=SYRTOS and GINOY STO KAMPO LEMONIA
TTITLE2=SYRTA OF MOUNTAKIS
TTITLE3=TAKSIM AND SYRTA OF RODINOS
EXTD=YEAR: 2003
EXTT0=
EXTT1=
EXTT2=
EXTT3=
PLAYORDER=
